<svg id="Layer_1" data-name="Layer 1" xmlns="http://www.w3.org/2000/svg" viewBox="0 0 663.99 663.99"><defs><style>.cls-1{fill:#021d40;}.cls-2{fill:#ff7f7f;}.cls-3{fill:#fff;}.cls-4{fill:#55a6d9;}.cls-5{fill:#feb008;}</style></defs><path class="cls-1" d="M966.5,929.52a331.26,331.26,0,1,1,234.25-97A329.11,329.11,0,0,1,966.5,929.52Z" transform="translate(-634.5 -266.25)"/><path d="M966.5,267.68a329.54,329.54,0,1,1-128.67,26,328.49,328.49,0,0,1,128.67-26m0-1.43c-183.36,0-332,148.64-332,332s148.64,332,332,332,332-148.64,332-332-148.64-332-332-332Z" transform="translate(-634.5 -266.25)"/><rect class="cls-2" x="119.32" y="337.58" width="82.14" height="164.32"/><path class="cls-3" d="M834.14,605.66V766.32H755.65V605.66h78.49M837.8,602H752V770h85.8V602Z" transform="translate(-634.5 -266.25)"/><rect class="cls-4" x="462.2" y="288.78" width="82.8" height="213.45"/><path class="cls-3" d="M1178,556.53V767h-79.8V556.53H1178m3-3h-85.8V770H1181V553.53Z" transform="translate(-634.5 -266.25)"/><rect class="cls-5" x="234.04" y="194.21" width="82.8" height="308.03"/><path class="cls-3" d="M949.85,462V767h-79.8V462h79.8m3-3h-85.8V770h85.8V459Z" transform="translate(-634.5 -266.25)"/><rect class="cls-4" x="349.1" y="133.76" width="82.8" height="368.48"/><path class="cls-3" d="M1064.9,401.5V767H985.1V401.5h79.8m3-3H982.1V770h85.8V398.5Z" transform="translate(-634.5 -266.25)"/></svg>